<mxfile host="65bd71144e">
    <diagram id="h5ZQZEdqfTLnGz2Qn-_g" name="Page-1">
        <mxGraphModel dx="640" dy="362" grid="1" gridSize="10" guides="1" tooltips="1" connect="1" arrows="1" fold="1" page="1" pageScale="1" pageWidth="850" pageHeight="1100" math="0" shadow="0">
            <root>
                <mxCell id="0"/>
                <mxCell id="1" parent="0"/>
                <mxCell id="11" value="theme" style="whiteSpace=wrap;html=1;dashed=1;strokeWidth=2;fillColor=none;labelPosition=center;verticalLabelPosition=top;align=center;verticalAlign=bottom;" vertex="1" parent="1">
                    <mxGeometry x="30" y="100" width="410" height="210" as="geometry"/>
                </mxCell>
                <mxCell id="5" style="edgeStyle=none;html=1;entryX=0;entryY=0.5;entryDx=0;entryDy=0;" edge="1" parent="1" source="2" target="4">
                    <mxGeometry relative="1" as="geometry">
                        <Array as="points">
                            <mxPoint x="210" y="150"/>
                        </Array>
                    </mxGeometry>
                </mxCell>
                <mxCell id="14" value="forward" style="edgeLabel;html=1;align=center;verticalAlign=middle;resizable=0;points=[];" vertex="1" connectable="0" parent="5">
                    <mxGeometry x="-0.1787" y="-1" relative="1" as="geometry">
                        <mxPoint x="17" y="12" as="offset"/>
                    </mxGeometry>
                </mxCell>
                <mxCell id="2" value="_colors1.scss" style="whiteSpace=wrap;html=1;" vertex="1" parent="1">
                    <mxGeometry x="40" y="120" width="120" height="60" as="geometry"/>
                </mxCell>
                <mxCell id="6" style="edgeStyle=none;html=1;entryX=0;entryY=0.5;entryDx=0;entryDy=0;" edge="1" parent="1" source="3" target="4">
                    <mxGeometry relative="1" as="geometry">
                        <mxPoint x="250" y="210" as="targetPoint"/>
                        <Array as="points">
                            <mxPoint x="210" y="250"/>
                        </Array>
                    </mxGeometry>
                </mxCell>
                <mxCell id="15" value="forward" style="edgeLabel;html=1;align=center;verticalAlign=middle;resizable=0;points=[];" vertex="1" connectable="0" parent="6">
                    <mxGeometry x="-0.101" relative="1" as="geometry">
                        <mxPoint x="12" y="-10" as="offset"/>
                    </mxGeometry>
                </mxCell>
                <mxCell id="3" value="_colors2.scss" style="whiteSpace=wrap;html=1;" vertex="1" parent="1">
                    <mxGeometry x="40" y="220" width="120" height="60" as="geometry"/>
                </mxCell>
                <mxCell id="8" style="edgeStyle=none;html=1;entryX=0;entryY=0.5;entryDx=0;entryDy=0;" edge="1" parent="1" source="4" target="7">
                    <mxGeometry relative="1" as="geometry"/>
                </mxCell>
                <mxCell id="12" value="use" style="edgeLabel;html=1;align=center;verticalAlign=middle;resizable=0;points=[];" vertex="1" connectable="0" parent="8">
                    <mxGeometry x="0.181" relative="1" as="geometry">
                        <mxPoint as="offset"/>
                    </mxGeometry>
                </mxCell>
                <mxCell id="4" value="_index.scss" style="whiteSpace=wrap;html=1;" vertex="1" parent="1">
                    <mxGeometry x="305" y="170" width="120" height="60" as="geometry"/>
                </mxCell>
                <mxCell id="10" style="edgeStyle=none;html=1;" edge="1" parent="1" source="7" target="9">
                    <mxGeometry relative="1" as="geometry"/>
                </mxCell>
                <mxCell id="18" value="compile" style="edgeLabel;html=1;align=center;verticalAlign=middle;resizable=0;points=[];" vertex="1" connectable="0" parent="10">
                    <mxGeometry x="-0.6667" relative="1" as="geometry">
                        <mxPoint y="25" as="offset"/>
                    </mxGeometry>
                </mxCell>
                <mxCell id="7" value="style.scss" style="whiteSpace=wrap;html=1;" vertex="1" parent="1">
                    <mxGeometry x="530" y="170" width="120" height="60" as="geometry"/>
                </mxCell>
                <mxCell id="17" style="edgeStyle=none;html=1;" edge="1" parent="1" source="9" target="16">
                    <mxGeometry relative="1" as="geometry"/>
                </mxCell>
                <mxCell id="20" value="link" style="edgeLabel;html=1;align=center;verticalAlign=middle;resizable=0;points=[];" vertex="1" connectable="0" parent="17">
                    <mxGeometry x="-0.2659" y="2" relative="1" as="geometry">
                        <mxPoint x="-2" y="5" as="offset"/>
                    </mxGeometry>
                </mxCell>
                <mxCell id="9" value="style.css" style="whiteSpace=wrap;html=1;" vertex="1" parent="1">
                    <mxGeometry x="530" y="320" width="120" height="60" as="geometry"/>
                </mxCell>
                <mxCell id="16" value="index.html" style="whiteSpace=wrap;html=1;strokeWidth=1;fillColor=default;" vertex="1" parent="1">
                    <mxGeometry x="530" y="450" width="120" height="60" as="geometry"/>
                </mxCell>
            </root>
        </mxGraphModel>
    </diagram>
</mxfile>